<svg width="32768" height="29320" viewBox="0 0 32768 29320" fill="none" xmlns="http://www.w3.org/2000/svg">
<path d="M3133.57 9785.62L3432.11 9730.65L3740.57 10095.6L4271.21 10001.7L4380.39 10113.2H4475.83L4594.94 10034.5L4663.66 10138.4L4421.62 10283.4L4124.62 10334.6V10772.8L4362.83 11050L4314.73 11166.1L4421.62 11256.2L4380.39 11353.1L4401.77 11453.1L4204.78 11553.2L4030.7 11453.1V11533.3H3946.72V11701.3L3885.64 11814.3H3824.55V11914.3L3740.57 11949.4H3643.6V12071.6L3592.45 12152.5L3643.6 12220.5L3708.5 12361.7V12477.8H3450.43L3398.51 12410.6V12623.6H3263.37L3328.27 12874.8H3450.43L3492.43 13022.9L3450.43 13142V13245.1L3282.46 13419.2V13500.1L3218.32 13558.1V13619.2H3373.32L3527.55 13912.4H3592.45V14051.4L3708.5 14138.4V14286.5L3908.54 14203.3L4001.69 14286.5V14367.5L3927.63 14454.5H4027.65L4114.69 14425.5L4336.87 14857.6H4401.77V15053.9L4294.88 15153.9H4185.7V15244H4359.78L4269.68 15363.9L4336.87 15450.9H4478.89H4665.18L5067.56 15696L5613.47 16147.2L5957.05 16396.1L6124.26 16307.6L6303.68 16382.4L6406 16529V16651.9L6470.13 16700L6547.25 16820.6L6496.85 16949.7L6621.31 17036L6806.84 17211.6V17389.5L6958.78 17520V17702.5L6731.25 18304.9L6747.29 19047.8H7277.93V19977L7506.22 20083.9L7517.67 20252.6L7569.59 20272.5L7632.96 20214.5L7892.56 20532.1L7819.26 20614.5L7916.23 20726L7933.79 20840.5L8147.57 20934.5L8291.88 20808.5H8583.54L8682.03 20735.9V20392.4L8583.54 20315.2V20188.5L8656.07 20096.1H8833.21V20043.4L8682.03 19969.4L8846.95 19995.3L9004.24 19902.9L9162.28 20043.4V20096.1L9079.06 20116L9134.03 20188.5L9118.76 20256.5L9079.06 20174.8H8986.67L8846.95 20116L8789.69 20153.4L8682.03 20135.8V20174.8L8789.69 20206.1V20289.3L9079.06 20448.9L9107.31 20426.7L9118.76 20367.9H9162.28V20587.1L9357.74 20543.5L9411.95 20569.5L9462.34 20528.3L9557.02 20569.5V20735.9L9627.26 20836.7H9679.18L10221.3 20448.9H10341.1L10551.9 20611.5V20955.1L10718.3 21091V21224.6L11174.1 21700.3H11229.1L11321.5 21779.7V22356.1L11417.7 22417.2L11507.8 22356.1H11575.8L11757.5 22520.3L11717.8 22658.5L11634.5 22629.5L11575.8 22673.7V22776.8L11654.4 22886H11757.5L11893.4 22908.1L11974.3 23164.7L11939.2 23368.5L12307.2 23960.3V24133.6L12502.7 24391.7V24527.6H12540.1V24464.2H12572.9L12666.8 24574.1H12754.6L12815.7 24672.6H13497.5L13815.1 24979.6H13915.9L14008.3 25051.3H14126.7L14406.9 25352.2H14474.8V25452.9H14431.3V25420.1H14406.9L14319.8 25470.5L15049 25956.9H15091L15740 26193.5V26404.3L16002.6 26588.3H16079.7V26642.5H16456.1L16478.3 26609.7L16559.2 26568.4L16677.6 26642.5H16928V26609.7H16993.6L17164.7 26846.3H17293.7L17420.5 26862.4L17475.4 26993.7L17523.5 27015.1L17611.3 26973.9L17686.2 27015.1H17830.5L18628.3 26508.9L18678.7 26568.4H18823.8L18975 26456.2V26336.3L19294.9 26193.5L19343 26105.7L19564.4 26075.2L19934.7 25884.3H20773.8L20892.2 25965.3L20980 26024.8V26143.2H21125L21096 26246.2L21332.7 26747.9V26984.5L21271.6 27059.4V27210.5L21397.6 27404.5L21551.3 27371.1L21683.5 27404.5L21943.6 27371.1L22154.7 27444.9L22439.5 27404.5H23072.7L23336.4 27444.9L24258.6 27404.5L25127.2 27527.4L26047.5 27489.2L26757.1 27568.6L27453.8 27527.4L28086 27609.8L28511.1 27568.6L28825.1 27609.8L29035 27265.5L29231.3 27444.9L29358 27293L29402.3 27058.6L29509.9 26945.6H29609.2V26881.5H29910L29969.6 26796H30094.8L30130.7 26725H30808.7V26421.8H30894.2V25966.8L31017.9 25887.4L30808.7 25672.1L30434.5 25775.1H30237.6L30149 25672.1L30243.7 25575.9L30175 25504.1L30267.3 25330.8V24700.9L30155.9 24405.4V24109.2L30194.8 23909.1L29903.9 23954.2L29514.5 23599.9L28825.1 23401.4L28356.3 22898.2L28200.5 22574.5H28160.8L28194.4 22474.5L28063.8 22339.3V22234L27960.8 22158.4V21973.6L27601.9 21657.5V21589.6L27225.5 21100.1L28648.7 19351.7L28621.2 19155.5L28696.8 19050.1V18862.3L28607.5 18652.3V18450.7L28467.7 18334.7L27187.3 18134.7L27130.8 17152.8L27248.4 16813.8L27184.3 16729.8L27130.8 16294.6L26933.8 15905.2L26815.5 15244L26739.1 15143.2L27194.2 14576.7V14456.8H27322.5L27246.1 14355.3H26867.4L26680.4 13996.4L26739.1 13855.9L26648.3 13304.7L26918.6 12923.7H27246.1L26988 12503H27194.2L27304.9 12348H27388.9V12156.3L27514.1 12011.3V11754.7L27637 11442.4L27556.1 11299.7V11098.1H27669.1L27831.7 10638.5V10448.4L27735.5 10333.1L27807.3 10172.7V9939.09L27620.2 9799.37L27775.2 9471.82V9346.6L27642.4 9093.12L27711.1 8652.57L27620.2 8512.08H26378L26086.3 8020.38L25997.8 7814.23L25868.7 7680.62H25690.8L25536.6 7547.76H25213.6L25035.7 7248.47L24979.2 7171.35H24902.1V6827.77L24792.9 6755.24L24724.2 6783.49H24627.3L24424.9 6568.94L24195.1 6488.01L24069.9 6464.34L24049.3 6419.29L23964.5 6488.01L23839.3 6520.84L23633.2 6419.29L23524 6520.84H23309.4L23099.5 6464.34V6302.47L22949.8 6225.36H22796.4L22614.6 6103.96H22468.8L22303.1 5978.74H21996.2L21716.7 5821.46L21765.6 5700.06L21716.7 5542.78H21628.2V5372.51L21547.2 5267.91H21450.3L21316.7 5445.05H21195.3L20932.6 5372.51L20828 5267.91L20714.3 5299.98L20576.8 5372.51L20463.8 5299.98H20334.8L20164.5 5445.05V5659.59H19429.3L19336.1 5581.71L18776.5 5659.59L18370.3 5924.53H18299.3L17761.7 6499.46L17822.1 6620.86L17782.4 6721.64L17577.7 6943.82L17454 6885.8L17173.8 7052.24L16871.5 7140.81H16504.2L16623.3 7721.08L16547 7846.3H16623.3V8115.06L16385.1 8215.84H15756.8L15640.7 8151.7H15555.2L15677.3 7999L14443.5 8344.11H14293.9L14226.7 8377.7H14034.3L13531.1 8564H12935.6L12709.6 8432.68H12556.9L12495.8 8344.11L11534.5 8044.81L10783.2 7488.97L10627.5 7024.76L10361.8 6985.05L10221.3 6865.95H9305.82C9187.73 6769.49 8949.72 6574.13 8942.39 6564.36C8935.06 6554.58 8806.99 6389.26 8743.88 6307.82V6158.17L8688.9 6072.65L8613.33 4949.52H8424.73L8241.48 5056.42L7923.86 4685.35V4601.36L7862.78 4642.59H7731.46L7607.77 4508.21V4402.85L7242.04 4166.92V4037.13L7370.31 3994.37V3953.14L7615.4 3922.6L7757.42 3766.84L7590.97 3590.47L7862.78 3326.16L7370.31 3050.61L7757.42 2792.71L7049.58 2232.33L6572.59 2327.92L5397.39 3590.47L5259.96 3766.84L5031.67 4002.77L4948.45 4082.17L4758.33 4037.13L4659.08 4002.77L4362.83 4166.92L4081.1 4037.13L3982.6 4118.82L3754.31 4002.77L3526.02 3920.31H3351.18L3229.01 3847.01L3274.82 3740.12L3133.57 3590.47L3218.32 3326.16L2993.09 3404.74L2807.55 3169.3H2624.31V2981.01L2410.53 2792.71L2202.09 2981.01L1947.84 2792.71L1703.51 2981.01L1553.1 3404.74L1224.38 3326.16L1350.77 3590.47V3758.44L1312.59 3920.31L1350.77 4082.17L1517.98 4198.23L1425.59 4418.88V4550.97L1508.82 4610.52V5082.38L1623.34 5133.53L1703.51 5082.38L1805.82 5166.36L1655.41 5329.76V5508.42L1530.96 5647.38L1401.16 5865.74V6078H1553.1L1927.22 6404.78V6499.46L1905.84 6559.01C1917.04 6574.03 1941.12 6604.06 1947.84 6604.06C1954.56 6604.06 1950.64 6719.61 1947.84 6777.38L1917.3 6920.16H1992.88V7007.2L2123.45 7044.61L2280.73 7224.03L2202.09 7330.16V7624.12L2410.53 7756.2V8037.18L2327.3 8140.25V8218.89H2489.93L2676.23 8386.1V8529.64L2624.31 8679.29L2660.96 8915.22L2741.89 8958.74H2807.55L2854.13 8889.26H2944.99L2993.09 8979.35V9256.51H3064.86V9481.75H3133.57V9785.62Z" fill="#754A24"/>
<path fill-rule="evenodd" clip-rule="evenodd" d="M32768 29318.8V0H0V29318.8H32768ZM3432.11 9730.65L3133.57 9785.62V9481.75H3064.86V9256.51H2993.09V8979.35L2944.99 8889.26H2854.13L2807.55 8958.74H2741.89L2660.96 8915.22L2624.31 8679.29L2676.23 8529.64V8386.1L2489.93 8218.89H2327.3V8140.25L2410.53 8037.18V7756.2L2202.09 7624.12V7330.16L2280.73 7224.03L2123.45 7044.61L1992.88 7007.2V6920.16H1917.3L1947.84 6777.38C1950.64 6719.61 1954.56 6604.06 1947.84 6604.06C1941.12 6604.06 1917.04 6574.03 1905.84 6559.01L1927.22 6499.46V6404.78L1553.1 6078H1401.16V5865.74L1530.96 5647.38L1655.41 5508.42V5329.76L1805.82 5166.36L1703.51 5082.38L1623.34 5133.53L1508.82 5082.38V4610.52L1425.59 4550.97V4418.88L1517.98 4198.23L1350.77 4082.17L1312.59 3920.31L1350.77 3758.44V3590.47L1224.38 3326.16L1553.1 3404.74L1703.51 2981.01L1947.84 2792.71L2202.09 2981.01L2410.53 2792.71L2624.31 2981.01V3169.3H2807.55L2993.09 3404.74L3218.32 3326.16L3133.57 3590.47L3274.82 3740.12L3229.01 3847.01L3351.18 3920.31H3526.02L3754.31 4002.77L3982.6 4118.82L4081.1 4037.13L4362.83 4166.92L4659.08 4002.77L4758.33 4037.13L4948.45 4082.17L5031.67 4002.77L5259.96 3766.84L5397.39 3590.47L6572.59 2327.92L7049.58 2232.33L7757.42 2792.71L7370.31 3050.61L7862.78 3326.16L7590.97 3590.47L7757.42 3766.84L7615.4 3922.6L7370.31 3953.14V3994.37L7242.04 4037.13V4166.92L7607.77 4402.85V4508.21L7731.46 4642.59H7862.78L7923.86 4601.36V4685.35L8241.48 5056.42L8424.73 4949.52H8613.33L8688.9 6072.65L8743.88 6158.17V6307.82C8806.99 6389.26 8935.06 6554.58 8942.39 6564.36C8949.72 6574.13 9187.73 6769.49 9305.82 6865.95H10221.3L10361.8 6985.05L10627.5 7024.76L10783.2 7488.97L11534.5 8044.81L12495.8 8344.11L12556.9 8432.68H12709.6L12935.6 8564H13531.1L14034.3 8377.7H14226.7L14293.9 8344.11H14443.5L15677.3 7999L15555.2 8151.7H15640.7L15756.8 8215.84H16385.1L16623.3 8115.06V7846.3H16547L16623.3 7721.08L16504.2 7140.81H16871.5L17173.8 7052.24L17454 6885.8L17577.7 6943.82L17782.4 6721.64L17822.1 6620.86L17761.7 6499.46L18299.3 5924.53H18370.3L18776.5 5659.59L19336.1 5581.71L19429.3 5659.59H20164.5V5445.05L20334.8 5299.98H20463.8L20576.8 5372.51L20714.3 5299.98L20828 5267.91L20932.6 5372.51L21195.3 5445.05H21316.7L21450.3 5267.91H21547.2L21628.2 5372.51V5542.78H21716.7L21765.6 5700.06L21716.7 5821.46L21996.2 5978.74H22303.1L22468.8 6103.96H22614.6L22796.4 6225.36H22949.8L23099.5 6302.47V6464.34L23309.4 6520.84H23524L23633.2 6419.29L23839.3 6520.84L23964.5 6488.01L24049.3 6419.29L24069.9 6464.34L24195.1 6488.01L24424.9 6568.94L24627.3 6783.49H24724.2L24792.9 6755.24L24902.1 6827.77V7171.35H24979.2L25035.7 7248.47L25213.6 7547.76H25536.6L25690.8 7680.62H25868.7L25997.8 7814.23L26086.3 8020.38L26378 8512.08H27620.2L27711.1 8652.57L27642.4 9093.12L27775.2 9346.6V9471.82L27620.2 9799.37L27807.3 9939.09V10172.7L27735.5 10333.1L27831.7 10448.4V10638.5L27669.1 11098.1H27556.1V11299.7L27637 11442.4L27514.1 11754.7V12011.3L27388.9 12156.3V12348H27304.9L27194.2 12503H26988L27246.1 12923.7H26918.6L26648.3 13304.7L26739.1 13855.9L26680.4 13996.4L26867.4 14355.3H27246.1L27322.5 14456.8H27194.2V14576.7L26739.1 15143.2L26815.5 15244L26933.8 15905.2L27130.8 16294.6L27184.3 16729.8L27248.4 16813.8L27130.8 17152.8L27187.3 18134.7L28467.7 18334.7L28607.5 18450.7V18652.3L28696.8 18862.3V19050.1L28621.2 19155.5L28648.7 19351.7L27225.5 21100.1L27601.9 21589.6V21657.5L27960.8 21973.6V22158.4L28063.8 22234V22339.3L28194.4 22474.5L28160.8 22574.5H28200.5L28356.3 22898.2L28825.1 23401.4L29514.5 23599.9L29903.9 23954.2L30194.8 23909.1L30155.9 24109.2V24405.4L30267.3 24700.9V25330.8L30175 25504.1L30243.7 25575.9L30149 25672.1L30237.6 25775.1H30434.5L30808.7 25672.1L31017.9 25887.4L30894.2 25966.8V26421.8H30808.7V26725H30130.7L30094.8 26796H29969.6L29910 26881.5H29609.2V26945.6H29509.9L29402.3 27058.6L29358 27293L29231.3 27444.9L29035 27265.5L28825.1 27609.8L28511.1 27568.6L28086 27609.8L27453.8 27527.4L26757.1 27568.6L26047.5 27489.2L25127.2 27527.4L24258.6 27404.5L23336.4 27444.9L23072.7 27404.5H22439.5L22154.7 27444.9L21943.6 27371.1L21683.5 27404.5L21551.3 27371.1L21397.6 27404.5L21271.6 27210.5V27059.4L21332.7 26984.5V26747.9L21096 26246.2L21125 26143.2H20980V26024.8L20892.2 25965.3L20773.8 25884.3H19934.7L19564.4 26075.2L19343 26105.7L19294.9 26193.5L18975 26336.3V26456.2L18823.8 26568.4H18678.7L18628.3 26508.9L17830.5 27015.1H17686.2L17611.3 26973.9L17523.5 27015.1L17475.4 26993.7L17420.5 26862.4L17293.7 26846.3H17164.7L16993.6 26609.7H16928V26642.5H16677.6L16559.2 26568.4L16478.3 26609.7L16456.1 26642.5H16079.7V26588.3H16002.6L15740 26404.3V26193.5L15091 25956.9H15049L14319.8 25470.5L14406.9 25420.1H14431.3V25452.9H14474.8V25352.2H14406.9L14126.7 25051.3H14008.3L13915.9 24979.6H13815.1L13497.5 24672.6H12815.7L12754.6 24574.1H12666.8L12572.9 24464.2H12540.1V24527.6H12502.7V24391.7L12307.2 24133.6V23960.3L11939.2 23368.5L11974.3 23164.7L11893.4 22908.1L11757.5 22886H11654.4L11575.8 22776.8V22673.7L11634.5 22629.5L11717.8 22658.5L11757.5 22520.3L11575.8 22356.1H11507.8L11417.7 22417.2L11321.5 22356.1V21779.7L11229.1 21700.3H11174.1L10718.3 21224.6V21091L10551.9 20955.1V20611.5L10341.1 20448.9H10221.3L9679.18 20836.7H9627.26L9557.02 20735.9V20569.5L9462.34 20528.3L9411.95 20569.5L9357.74 20543.5L9162.28 20587.1V20367.9H9118.76L9107.31 20426.7L9079.06 20448.9L8789.69 20289.3V20206.1L8682.03 20174.8V20135.8L8789.69 20153.4L8846.95 20116L8986.67 20174.8H9079.06L9118.76 20256.5L9134.03 20188.5L9079.06 20116L9162.28 20096.1V20043.4L9004.24 19902.9L8846.95 19995.3L8682.03 19969.4L8833.21 20043.4V20096.1H8656.07L8583.54 20188.5V20315.2L8682.03 20392.4V20735.9L8583.54 20808.5H8291.88L8147.57 20934.5L7933.79 20840.5L7916.23 20726L7819.26 20614.5L7892.56 20532.1L7632.96 20214.5L7569.59 20272.5L7517.67 20252.6L7506.22 20083.9L7277.93 19977V19047.8H6747.29L6731.25 18304.9L6958.78 17702.5V17520L6806.84 17389.5V17211.6L6621.31 17036L6496.85 16949.7L6547.25 16820.6L6470.13 16700L6406 16651.9V16529L6303.68 16382.4L6124.26 16307.6L5957.05 16396.1L5613.47 16147.2L5067.56 15696L4665.18 15450.9H4478.89H4336.87L4269.68 15363.9L4359.78 15244H4185.7V15153.9H4294.88L4401.77 15053.9V14857.6H4336.87L4114.69 14425.5L4027.65 14454.5H3927.63L4001.69 14367.5V14286.5L3908.54 14203.3L3708.5 14286.5V14138.4L3592.45 14051.4V13912.4H3527.55L3373.32 13619.2H3218.32V13558.1L3282.46 13500.1V13419.2L3450.43 13245.1V13142L3492.43 13022.9L3450.43 12874.8H3328.27L3263.37 12623.6H3398.51V12410.6L3450.43 12477.8H3708.5V12361.7L3643.6 12220.5L3592.45 12152.5L3643.6 12071.6V11949.4H3740.57L3824.55 11914.3V11814.3H3885.64L3946.72 11701.3V11533.3H4030.7V11453.1L4204.78 11553.2L4401.77 11453.1L4380.39 11353.1L4421.62 11256.2L4314.73 11166.1L4362.83 11050L4124.62 10772.8V10334.6L4421.62 10283.4L4663.66 10138.4L4594.94 10034.5L4475.83 10113.2H4380.39L4271.21 10001.7L3740.57 10095.6L3432.11 9730.65Z" fill="#CFB686"/>
</svg>
